<?xml version="1.0" encoding="UTF-8"?>
<svg version="1.1" xmlns="http://www.w3.org/2000/svg" width="323" height="185">
<path d="M0 0 C3.14232914 1.66358602 4.71219349 2.10874927 8.1875 1.6875 C9.1775 -1.2825 10.1675 -4.2525 11.1875 -7.3125 C13.1675 -7.3125 15.1475 -7.3125 17.1875 -7.3125 C18.65314839 -4.38120322 17.83585191 -1.83508613 17.48095703 1.33105469 C16.82780951 8.80149738 16.79993026 16.31834477 16.625 23.8125 C16.58172119 25.5494877 16.53810422 27.286467 16.49414062 29.0234375 C16.38802656 33.24470499 16.28649471 37.4660598 16.1875 41.6875 C14.18795254 41.73004356 12.18708364 41.72830783 10.1875 41.6875 C8.47495636 39.97495636 8.61723163 37.66591228 8.23632812 35.36645508 C6.69300936 26.05961724 4.09188094 18.77972855 -0.8125 10.6875 C-0.8125 10.0275 -0.8125 9.3675 -0.8125 8.6875 C-1.4725 8.6875 -2.1325 8.6875 -2.8125 8.6875 C-3.96292971 7.50323412 -5.11257369 6.3181927 -6.2578125 5.12890625 C-13.78872631 -1.85327263 -21.24480042 -2.65781847 -31.22265625 -2.60546875 C-36.29156113 -2.19179316 -40.3258308 -0.61464861 -44.8125 1.6875 C-45.56273438 2.06132812 -46.31296875 2.43515625 -47.0859375 2.8203125 C-47.65570313 3.10648438 -48.22546875 3.39265625 -48.8125 3.6875 C-48.8125 4.3475 -48.8125 5.0075 -48.8125 5.6875 C-49.4725 5.6875 -50.1325 5.6875 -50.8125 5.6875 C-51.10125 6.409375 -51.39 7.13125 -51.6875 7.875 C-52.36305312 9.56388281 -53.07490267 11.23982322 -53.85546875 12.8828125 C-56.40665815 20.35935939 -56.03745389 30.22268688 -52.6875 37.375 C-50.31441157 41.42080978 -47.54692001 43.90839673 -43.8125 46.6875 C-43.8125 47.3475 -43.8125 48.0075 -43.8125 48.6875 C-42.98492187 49.07228516 -42.98492187 49.07228516 -42.140625 49.46484375 C-39.45782938 50.87376158 -37.04432032 52.51200009 -34.5625 54.25 C-33.67046875 54.87003906 -32.7784375 55.49007812 -31.859375 56.12890625 C-31.18390625 56.64324219 -30.5084375 57.15757813 -29.8125 57.6875 C-29.8125 58.0175 -29.8125 58.3475 -29.8125 58.6875 C-42.0225 58.6875 -54.2325 58.6875 -66.8125 58.6875 C-74.09760791 45.57430577 -77.51724326 33.14748279 -73.75 18.3125 C-69.97623044 7.78846658 -62.51953522 -0.164918 -52.625 -5.0625 C-34.47354088 -12.79551888 -16.40920226 -9.95893269 0 0 Z " fill="#383838" transform="translate(85.8125,17.3125)"/>
<path d="M0 0 C1.99954746 -0.04254356 4.00041636 -0.04080783 6 0 C7.88763304 1.88763304 7.53599805 5.2175522 7.8125 7.75 C9.50800444 21.45150887 13.55992838 35.8847003 24.0078125 45.56640625 C32.8385386 51.92106601 43.48443286 52.69534493 54 52 C59.53064225 50.9307425 63.51891633 49.38212869 68 46 C68.66 46 69.32 46 70 46 C70.43119141 45.13181641 70.43119141 45.13181641 70.87109375 44.24609375 C71.57980738 42.83602338 72.29956419 41.43139326 73.03515625 40.03515625 C73.54369141 39.05869141 73.54369141 39.05869141 74.0625 38.0625 C74.57490234 37.08990234 74.57490234 37.08990234 75.09765625 36.09765625 C78.55483254 28.06084384 77.98659217 18.02147027 74.93359375 9.97265625 C73.56751651 7.08617506 71.84231966 4.60465883 70 2 C70 1.34 70 0.68 70 0 C79.24 0 88.48 0 98 0 C101.48771248 12.20699368 101.4696662 25.56264785 95.31640625 36.9609375 C87.58477189 48.93694087 77.6209742 54.66739025 64 58 C47.33297068 61.40557703 30.74914306 58.57420965 16.25 49.75 C13.06275746 48.03379248 11.53073535 47.57203208 8 48 C7.01 50.97 6.02 53.94 5 57 C3.02 57 1.04 57 -1 57 C-1.20638953 16.95408138 -1.20638953 16.95408138 0 0 Z " fill="#404040" transform="translate(11,122)"/>
<path d="M0 0 C13.86 0 27.72 0 42 0 C45.21179243 6.42358486 47.93150708 12.17388269 50.125 18.875 C53.49958239 28.86831913 57.34416396 38.6561503 61.26806641 48.44287109 C61.7222998 49.58191895 62.1765332 50.7209668 62.64453125 51.89453125 C63.05034424 52.90362549 63.45615723 53.91271973 63.87426758 54.95239258 C65.08962243 58.24262782 66.03640863 61.62743021 67 65 C59.08 65 51.16 65 43 65 C34.585 43.715 34.585 43.715 26 22 C25.67 36.19 25.34 50.38 25 65 C23.02 65 21.04 65 19 65 C18.0769986 54.08880483 17.91437417 43.26259881 18.03710938 32.31494141 C18.54178391 20.76887725 18.54178391 20.76887725 15.359375 9.95703125 C12.32728475 7.44200275 10.14137003 7.1155507 6.25 6.6875 C5.07953125 6.54699219 3.9090625 6.40648437 2.703125 6.26171875 C1.81109375 6.17535156 0.9190625 6.08898437 0 6 C-1.125 2.25 -1.125 2.25 0 0 Z " fill="#3A3A3A" transform="translate(132,11)"/>
<path d="M0 0 C0.042721 1.66611905 0.04063832 3.33382885 0 5 C-2.2519612 7.2519612 -7.06781937 6.96514519 -10.1171875 7.40234375 C-13.18013813 7.84980475 -13.18013813 7.84980475 -16 10 C-18.64457335 15.50591501 -18.34770411 21.3253161 -18.4140625 27.3046875 C-18.43342865 28.38380402 -18.4527948 29.46292053 -18.4727478 30.57473755 C-18.53233942 34.00807895 -18.57884761 37.44145424 -18.625 40.875 C-18.66319853 43.20834764 -18.70225135 45.54168146 -18.7421875 47.875 C-18.83962579 53.58325984 -18.91935778 59.29137945 -19 65 C-26.59 65 -34.18 65 -42 65 C-42.33 51.47 -42.66 37.94 -43 24 C-49.89956496 41.41209822 -49.89956496 41.41209822 -56.23486328 59.03295898 C-57.90410249 63.90410249 -57.90410249 63.90410249 -59 65 C-60.99958364 65.04080783 -63.00045254 65.04254356 -65 65 C-64.3730696 59.82985972 -62.75834348 55.46705584 -60.8125 50.6875 C-58.41231096 44.66484907 -56.11832685 38.62752854 -54 32.5 C-50.3147476 21.87883034 -46.17855128 11.43510917 -42 1 C-27.99358774 0.36511019 -14.0220641 -0.17358814 0 0 Z " fill="#3A3A3A" transform="translate(317,11)"/>
<path d="M0 0 C7.59 0 15.18 0 23 0 C23.05607422 4.22683594 23.05607422 4.22683594 23.11328125 8.5390625 C23.15954234 11.2795369 23.21075931 14.0198772 23.26245117 16.76025391 C23.29562793 18.65925899 23.32368231 20.55836096 23.34643555 22.45751953 C23.38011518 25.19345235 23.4324372 27.92850311 23.48828125 30.6640625 C23.49467117 31.50804596 23.5010611 32.35202942 23.50764465 33.22158813 C23.6304142 38.18577537 24.2128717 41.72127922 27 46 C30.2811302 48.18742014 32.33084356 48.54442806 36.1875 49.125 C37.27417969 49.29257813 38.36085938 49.46015625 39.48046875 49.6328125 C40.72763672 49.81457031 40.72763672 49.81457031 42 50 C42 51.65 42 53.3 42 55 C21.87 55 1.74 55 -19 55 C-18.67 53.35 -18.34 51.7 -18 50 C-11.07 49.01 -11.07 49.01 -4 48 C-4 47.34 -4 46.68 -4 46 C-3.34 46 -2.68 46 -2 46 C-1.10873035 40.57308765 -0.79599251 35.27948822 -0.68359375 29.78515625 C-0.66281265 28.92941513 -0.64203156 28.07367401 -0.62062073 27.19200134 C-0.55570046 24.48224224 -0.49651022 21.7723936 -0.4375 19.0625 C-0.39425995 17.21548586 -0.35064399 15.36848048 -0.30664062 13.52148438 C-0.19937759 9.01441296 -0.09987811 4.50726521 0 0 Z " fill="#383838" transform="translate(275,122)"/>
<path d="M0 0 C3.62493334 -0.05787784 7.24974857 -0.0935542 10.875 -0.125 C11.90753906 -0.14175781 12.94007813 -0.15851563 14.00390625 -0.17578125 C14.99003906 -0.18222656 15.97617188 -0.18867187 16.9921875 -0.1953125 C18.35899658 -0.21102295 18.35899658 -0.21102295 19.75341797 -0.22705078 C22 0 22 0 24 2 C24.74609375 3.75585938 24.74609375 3.75585938 25.4375 5.84375 C25.82035156 6.97103516 25.82035156 6.97103516 26.2109375 8.12109375 C26.73697917 9.70703125 27.26302083 11.29296875 27.7890625 12.87890625 C28.04429687 13.63042969 28.29953125 14.38195312 28.5625 15.15625 C28.90474609 16.18975586 28.90474609 16.18975586 29.25390625 17.24414062 C29.95951851 19.20902488 29.95951851 19.20902488 32 21 C32.20681396 20.39937744 32.41362793 19.79875488 32.62670898 19.17993164 C33.56064116 16.47307571 34.49900895 13.76777852 35.4375 11.0625 C35.76298828 10.11697266 36.08847656 9.17144531 36.42382812 8.19726562 C36.73642578 7.29814453 37.04902344 6.39902344 37.37109375 5.47265625 C37.65911865 4.64000244 37.94714355 3.80734863 38.24389648 2.94946289 C39 1 39 1 40 0 C41.99958364 -0.04080783 44.00045254 -0.04254356 46 0 C45.41551868 4.04009243 44.53474762 7.69174315 43.14453125 11.52734375 C42.77223389 12.55980225 42.39993652 13.59226074 42.01635742 14.65600586 C41.61908447 15.73889893 41.22181152 16.82179199 40.8125 17.9375 C40.40684814 19.05326416 40.00119629 20.16902832 39.58325195 21.31860352 C36.93633984 28.55839346 34.20917245 35.75455102 31.265625 42.87890625 C30.43408079 44.92953533 29.65087857 47.00056177 28.921875 49.08984375 C28.59703125 50.00894531 28.2721875 50.92804688 27.9375 51.875 C27.54884766 53.04675781 27.54884766 53.04675781 27.15234375 54.2421875 C26 56 26 56 23.42797852 56.60986328 C22.62674561 56.7386084 21.8255127 56.86735352 21 57 C18.4921875 50.73046875 18.4921875 50.73046875 17.68405151 48.70903015 C16.15824945 44.89299652 14.63020357 41.07788247 13.09863281 37.26416016 C11.43883866 33.12960266 9.7868088 28.99200039 8.13867188 24.8527832 C7.45463515 23.13857267 6.76805101 21.42537676 6.07910156 19.71313477 C5.06972667 17.20320325 4.06915106 14.68992107 3.0703125 12.17578125 C2.76102814 11.41227859 2.45174377 10.64877594 2.13308716 9.86213684 C0.73455054 6.31746789 0 3.86188011 0 0 Z " fill="#393939" transform="translate(194,122)"/>
<path d="M0 0 C13.45611498 -0.52540145 23.36763679 2.36648151 34.8125 9.3125 C37.95482914 10.97608602 39.52469349 11.42124927 43 11 C43.99 8.03 44.98 5.06 46 2 C47.98 2 49.96 2 52 2 C53.46564839 4.93129678 52.64835191 7.47741387 52.29345703 10.64355469 C51.64030951 18.11399738 51.61243026 25.63084477 51.4375 33.125 C51.39422119 34.8619877 51.35060422 36.598967 51.30664062 38.3359375 C51.20052656 42.55720499 51.09899471 46.7785598 51 51 C49.00045254 51.04254356 46.99958364 51.04080783 45 51 C43.28745636 49.28745636 43.42973163 46.97841228 43.04882812 44.67895508 C41.50550936 35.37211724 38.90438094 28.09222855 34 20 C34 19.34 34 18.68 34 18 C33.34 18 32.68 18 32 18 C30.84957029 16.81573412 29.69992631 15.6306927 28.5546875 14.44140625 C21.55684061 7.95345273 15.00743148 6.82922555 5.6875 6.9375 C4.57665039 6.94426758 4.57665039 6.94426758 3.44335938 6.95117188 C1.62887101 6.96287825 -0.18557534 6.98081102 -2 7 C-1.67 6.34 -1.34 5.68 -1 5 C5.27 5 11.54 5 18 5 C18.33 4.34 18.66 3.68 19 3 C12.73 2.34 6.46 1.68 0 1 C0 0.67 0 0.34 0 0 Z " fill="#454545" transform="translate(51,8)"/>
<path d="M0 0 C1.4540625 0.0309375 1.4540625 0.0309375 2.9375 0.0625 C2.95731934 1.08085938 2.97713867 2.09921875 2.99755859 3.1484375 C3.07413117 6.95807949 3.16276507 10.76736499 3.25488281 14.57666016 C3.29296062 16.21949175 3.32784888 17.86240071 3.359375 19.50537109 C3.40549015 21.8788604 3.46340261 24.2518267 3.5234375 26.625 C3.53498871 27.34929199 3.54653992 28.07358398 3.55844116 28.81982422 C3.72299795 34.61809475 4.20707556 40.58815477 7.609375 45.453125 C10.70980474 47.59637509 13.49386329 48.1284932 17.1875 48.8125 C18.45078125 49.05484375 19.7140625 49.2971875 21.015625 49.546875 C21.97984375 49.71703125 22.9440625 49.8871875 23.9375 50.0625 C24.4325 52.5375 24.4325 52.5375 24.9375 55.0625 C22.06436592 56.02021136 20.43304794 56.15902642 17.46606445 56.08422852 C16.56535721 56.06413223 15.66464996 56.04403595 14.73664856 56.02333069 C13.76781235 55.99629562 12.79897614 55.96926056 11.80078125 55.94140625 C10.30891548 55.90598976 10.30891548 55.90598976 8.78691101 55.86985779 C5.60779494 55.79323623 2.42892337 55.70920512 -0.75 55.625 C-2.90428488 55.57177782 -5.05858172 55.51903743 -7.21289062 55.46679688 C-12.4962453 55.33762312 -17.77941811 55.20236412 -23.0625 55.0625 C-22.7325 53.4125 -22.4025 51.7625 -22.0625 50.0625 C-21.17046875 49.91554687 -20.2784375 49.76859375 -19.359375 49.6171875 C-12.18656841 48.3827309 -12.18656841 48.3827309 -6.3125 44.4375 C-3.00480025 35.50671068 -3.97208141 25.45957502 -4.0625 16.0625 C-4.08902702 13.25000441 -4.10899238 10.43757274 -4.125 7.625 C-4.13660156 6.38878906 -4.14820313 5.15257813 -4.16015625 3.87890625 C-4.02387602 -0.05141562 -3.96793399 0.08097824 0 0 Z " fill="#4C4C4C" transform="translate(154.0625,121.9375)"/>
<path d="M0 0 C2.66130399 1.01755741 3.80516056 1.66684861 5.265625 4.1640625 C5.59046875 4.97617188 5.9153125 5.78828125 6.25 6.625 C6.58515625 7.44226563 6.9203125 8.25953125 7.265625 9.1015625 C7.62914062 10.04128906 7.62914062 10.04128906 8 11 C8.24234375 10.28972656 8.4846875 9.57945313 8.734375 8.84765625 C9.06953125 7.92855469 9.4046875 7.00945312 9.75 6.0625 C10.07484375 5.14597656 10.3996875 4.22945313 10.734375 3.28515625 C12 1 12 1 14.140625 0.18359375 C15.06101563 0.09271484 15.06101563 0.09271484 16 0 C17.73955334 6.43013467 18.24991456 12.34949576 18 19 C17.01 19 16.02 19 15 19 C14.34 16.36 13.68 13.72 13 11 C11.68 13.64 10.36 16.28 9 19 C8.01 19 7.02 19 6 19 C4.68 16.03 3.36 13.06 2 10 C1.34 12.97 0.68 15.94 0 19 C-0.99 18.67 -1.98 18.34 -3 18 C-2.88566637 15.74943278 -2.75813564 13.49953326 -2.625 11.25 C-2.55539063 9.99703125 -2.48578125 8.7440625 -2.4140625 7.453125 C-2.04676696 4.39001879 -1.60288714 2.58025734 0 0 Z " fill="#787878" transform="translate(217,89)"/>
<path d="M0 0 C4.97687303 2.05566495 6.94540211 5.69579389 10 10 C10.33 6.7 10.66 3.4 11 0 C11.99 0 12.98 0 14 0 C14 6.27 14 12.54 14 19 C13.01 19 12.02 19 11 19 C9.17578125 16.8125 9.17578125 16.8125 7.3125 14 C6.68988281 13.071875 6.06726563 12.14375 5.42578125 11.1875 C4.72001953 10.1046875 4.72001953 10.1046875 4 9 C3.67 11.97 3.34 14.94 3 18 C1.68 18 0.36 18 -1 18 C-1.02684312 15.18743719 -1.04676188 12.37512759 -1.0625 9.5625 C-1.07087891 8.76005859 -1.07925781 7.95761719 -1.08789062 7.13085938 C-1.0965143 5.08704779 -1.0522815 3.04316098 -1 1 C-0.67 0.67 -0.34 0.34 0 0 Z " fill="#919191" transform="translate(180,89)"/>
<path d="M0 0 C2.9375 2 2.9375 2 5 5 C5.74590903 9.69922691 5.72362578 12.58461394 2.9375 16.5 C0 19 0 19 -3.5 19.625 C-7.73592745 18.86858438 -9.35821484 18.44232611 -12 15 C-12.70776781 11.20797573 -12.70776781 7.79202427 -12 4 C-8.66962918 -0.3395741 -5.28825677 -0.84989841 0 0 Z M-6 3 C-8.20437621 5.66045405 -9.06112718 7.14421954 -8.8125 10.625 C-8.03755004 13.2204806 -8.03755004 13.2204806 -6 16 C-2.3090649 15.65714799 -2.3090649 15.65714799 0.375 13.3125 C1.20815264 10.22983524 0.80044982 8.06839098 0 5 C-0.66 4.34 -1.32 3.68 -2 3 C-3.32 3 -4.64 3 -6 3 Z " fill="#767676" transform="translate(167,89)"/>
<path d="M0 0 C1.32 0 2.64 0 4 0 C6.31 5.94 8.62 11.88 11 18 C9.68 18.33 8.36 18.66 7 19 C6.34 17.35 5.68 15.7 5 14 C2.69 14 0.38 14 -2 14 C-2.103125 14.639375 -2.20625 15.27875 -2.3125 15.9375 C-2.539375 16.618125 -2.76625 17.29875 -3 18 C-3.99 18.33 -4.98 18.66 -6 19 C-5.52877252 12.0886636 -2.79363994 6.27795839 0 0 Z M1 6 C0.67 7.65 0.34 9.3 0 11 C0.99 11 1.98 11 3 11 C2.67 9.35 2.34 7.7 2 6 C1.67 6 1.34 6 1 6 Z " fill="#393939" transform="translate(118,89)"/>
<path d="M0 0 C3.5 0.5 3.5 0.5 5.4375 2.5 C5.788125 3.16 6.13875 3.82 6.5 4.5 C3.44736336 5.48120464 1.55263664 5.48120464 -1.5 4.5 C-1.17 5.49 -0.84 6.48 -0.5 7.5 C1.14551962 8.21727778 2.81422289 8.88325228 4.5 9.5 C6.5 11.5 6.5 11.5 6.8125 13.9375 C6.5 16.5 6.5 16.5 5.4375 18.3125 C2.43702602 20.15150018 -0.06481613 19.80671285 -3.5 19.5 C-4.49 18.84 -5.48 18.18 -6.5 17.5 C-6.17 16.18 -5.84 14.86 -5.5 13.5 C-4.901875 13.83 -4.30375 14.16 -3.6875 14.5 C-1.44613529 15.70787988 -1.44613529 15.70787988 1.5 15.5 C1.17 14.51 0.84 13.52 0.5 12.5 C-0.49 12.04625 -1.48 11.5925 -2.5 11.125 C-5.5 9.5 -5.5 9.5 -6.5625 7.0625 C-6.5 4.5 -6.5 4.5 -5.5 2.1875 C-3.5 0.5 -3.5 0.5 0 0 Z " fill="#9C9C9C" transform="translate(98.5,88.5)"/>
<path d="M0 0 C4 4 4 4 4.45410156 6.84082031 C4.4331543 7.90913086 4.41220703 8.97744141 4.390625 10.078125 C4.37773437 11.23828125 4.36484375 12.3984375 4.3515625 13.59375 C4.31804687 14.8003125 4.28453125 16.006875 4.25 17.25 C4.23195312 18.47203125 4.21390625 19.6940625 4.1953125 20.953125 C4.148181 23.96954078 4.08239413 26.98437491 4 30 C2.68 30 1.36 30 0 30 C0 20.1 0 10.2 0 0 Z " fill="#292929" transform="translate(152,46)"/>
<path d="M0 0 C1.98 0 3.96 0 6 0 C5.36843005 5.05255964 3.86540627 9.29593201 2 14 C0.68 14 -0.64 14 -2 14 C-2.99 15.485 -2.99 15.485 -4 17 C-4.66 17 -5.32 17 -6 17 C-4.13236819 11.27789404 -2.14710968 5.62338249 0 0 Z " fill="#575757" transform="translate(234,122)"/>
<path d="M0 0 C0.99 0 1.98 0 3 0 C3 5.28 3 10.56 3 16 C5.97 16 8.94 16 12 16 C12 16.99 12 17.98 12 19 C8.04 19 4.08 19 0 19 C-0.19425873 16.20865148 -0.38069517 13.41716313 -0.5625 10.625 C-0.61857422 9.8309375 -0.67464844 9.036875 -0.73242188 8.21875 C-1.11328125 2.2265625 -1.11328125 2.2265625 0 0 Z " fill="#848484" transform="translate(136,89)"/>
<path d="M0 0 C0 5.28 0 10.56 0 16 C-1.98 16 -3.96 16 -6 16 C-6.10841951 14.08458862 -6.18578079 12.16740227 -6.25 10.25 C-6.29640625 9.18265625 -6.3428125 8.1153125 -6.390625 7.015625 C-6 4 -6 4 -4.109375 1.609375 C-2 0 -2 0 0 0 Z " fill="#353535" transform="translate(101,42)"/>
<path d="M0 0 C0.99 0 1.98 0 3 0 C3 6.27 3 12.54 3 19 C2.01 19 1.02 19 0 19 C-3.45263456 15.54736544 -4.55074862 12.82945236 -5 8 C-3.02 8.99 -3.02 8.99 -1 10 C-0.67 6.7 -0.34 3.4 0 0 Z " fill="#7B7B7B" transform="translate(191,89)"/>
<path d="M0 0 C1.32 0 2.64 0 4 0 C4.69685498 1.6210103 5.38222861 3.24696066 6.0625 4.875 C6.44535156 5.77992187 6.82820313 6.68484375 7.22265625 7.6171875 C8 10 8 10 7 12 C4.36 12 1.72 12 -1 12 C-1 10.68 -1 9.36 -1 8 C-1.99 8.495 -1.99 8.495 -3 9 C-2.01 6.03 -1.02 3.06 0 0 Z M1 6 C0.67 7.65 0.34 9.3 0 11 C0.99 11 1.98 11 3 11 C2.67 9.35 2.34 7.7 2 6 C1.67 6 1.34 6 1 6 Z " fill="#979797" transform="translate(118,89)"/>
<path d="M0 0 C1.32 0 2.64 0 4 0 C4.05383848 2.45862401 4.09359038 4.9160755 4.125 7.375 C4.14175781 8.07367188 4.15851563 8.77234375 4.17578125 9.4921875 C4.19344267 11.32897486 4.10303261 13.16601963 4 15 C3.34 15.66 2.68 16.32 2 17 C1.34 16.67 0.68 16.34 0 16 C0 10.72 0 5.44 0 0 Z " fill="#2A2A2A" transform="translate(152,123)"/>
<path d="M0 0 C9.03679817 -0.35284678 17.61951185 0.41910919 26 4 C26 4.33 26 4.66 26 5 C24.35 5.33 22.7 5.66 21 6 C21 6.66 21 7.32 21 8 C19.52853516 7.75443359 19.52853516 7.75443359 18.02734375 7.50390625 C13.85881034 6.90840148 9.76598864 6.88750425 5.5625 6.9375 C4.46518555 6.94426758 4.46518555 6.94426758 3.34570312 6.95117188 C1.56376581 6.96281852 -0.21812863 6.98074809 -2 7 C-1.67 6.34 -1.34 5.68 -1 5 C5.27 5 11.54 5 18 5 C18.33 4.34 18.66 3.68 19 3 C12.73 2.34 6.46 1.68 0 1 C0 0.67 0 0.34 0 0 Z " fill="#9F9F9F" transform="translate(51,8)"/>
<path d="M0 0 C0.99 0 1.98 0 3 0 C4.73955334 6.43013467 5.24991456 12.34949576 5 19 C4.01 19 3.02 19 2 19 C1.86722656 18.09636719 1.73445312 17.19273438 1.59765625 16.26171875 C1.42105469 15.08222656 1.24445313 13.90273437 1.0625 12.6875 C0.88847656 11.51574219 0.71445313 10.34398438 0.53515625 9.13671875 C0.07906969 5.98358597 0.07906969 5.98358597 -1 3 C-0.67 2.01 -0.34 1.02 0 0 Z " fill="#6D6D6D" transform="translate(230,89)"/>
<path d="M0 0 C0.33 0.99 0.66 1.98 1 3 C2.32 2.67 3.64 2.34 5 2 C5.1875 5.3125 5.1875 5.3125 5 9 C4.2884375 9.66515625 4.2884375 9.66515625 3.5625 10.34375 C1.30241277 12.73944246 1.26255718 14.96786018 0.8125 18.1875 C0.57466797 19.81751953 0.57466797 19.81751953 0.33203125 21.48046875 C0.22246094 22.31191406 0.11289063 23.14335937 0 24 C-0.33 24 -0.66 24 -1 24 C-0.67 16.08 -0.34 8.16 0 0 Z " fill="#4E4E4E" transform="translate(151,136)"/>
<path d="M0 0 C0.66 0.33 1.32 0.66 2 1 C2.125 3.375 2.125 3.375 2 6 C0 8 0 8 -3.4375 8.25 C-7 8 -7 8 -10 6 C-9.67 4.68 -9.34 3.36 -9 2 C-6.03 2.99 -3.06 3.98 0 5 C0 3.35 0 1.7 0 0 Z " fill="#858585" transform="translate(102,100)"/>
<path d="M0 0 C0.88171875 0.13921875 1.7634375 0.2784375 2.671875 0.421875 C4.00992188 0.61523438 4.00992188 0.61523438 5.375 0.8125 C6.38820312 0.99039063 6.38820312 0.99039063 7.421875 1.171875 C7.421875 2.491875 7.421875 3.811875 7.421875 5.171875 C0.491875 4.676875 0.491875 4.676875 -6.578125 4.171875 C-2.578125 0.171875 -2.578125 0.171875 0 0 Z " fill="#343434" transform="translate(169.578125,171.828125)"/>
<path d="M0 0 C1.79275866 3.11910856 2.34290718 5.67682428 2.625 9.25 C2.69976562 10.14203125 2.77453125 11.0340625 2.8515625 11.953125 C2.90054688 12.62859375 2.94953125 13.3040625 3 14 C2.34 12.68 1.68 11.36 1 10 C0.3503125 10.99 0.3503125 10.99 -0.3125 12 C-0.869375 12.66 -1.42625 13.32 -2 14 C-2.99 14 -3.98 14 -5 14 C-4.28269264 10.76834156 -3.18684926 7.81292078 -1.9375 4.75 C-1.57527344 3.85796875 -1.21304688 2.9659375 -0.83984375 2.046875 C-0.56269531 1.37140625 -0.28554687 0.6959375 0 0 Z " fill="#BBBBBB" transform="translate(229,90)"/>
<path d="M0 0 C1.32 0.66 2.64 1.32 4 2 C3.67 2.66 3.34 3.32 3 4 C2.34 3.67 1.68 3.34 1 3 C-0.4783226 5.95664519 -0.06032783 8.74229737 0 12 C0.33 12 0.66 12 1 12 C0.67 14.31 0.34 16.62 0 19 C-0.99 18.67 -1.98 18.34 -3 18 C-2.88566637 15.74943278 -2.75813564 13.49953326 -2.625 11.25 C-2.55539063 9.99703125 -2.48578125 8.7440625 -2.4140625 7.453125 C-2.04676696 4.39001879 -1.60288714 2.58025734 0 0 Z " fill="#9B9B9B" transform="translate(217,89)"/>
<path d="M0 0 C0.391875 0.45375 0.78375 0.9075 1.1875 1.375 C3.31157179 3.27934023 5.35428481 3.98241723 8 5 C10 7 10 7 10.125 9.625 C10.08375 10.40875 10.0425 11.1925 10 12 C9.34 10.68 8.68 9.36 8 8 C7.67 9.32 7.34 10.64 7 12 C5 11 5 11 4 8 C2.67151309 6.99357052 1.33849671 5.99307821 0 5 C0 3.33333333 0 1.66666667 0 0 Z " fill="#A7A7A7" transform="translate(95,93)"/>
<path d="M0 0 C1.32 0 2.64 0 4 0 C6.67927341 4.01891012 6.15601248 6.24161923 6 11 C4.68 11.33 3.36 11.66 2 12 C2.04125 10.948125 2.0825 9.89625 2.125 8.8125 C2.00852125 5.25989827 1.52791932 3.15133359 0 0 Z " fill="#717171" transform="translate(166,91)"/>
<path d="M0 0 C0.66 0.66 1.32 1.32 2 2 C1.625 5.625 1.625 5.625 1 9 C1.99 8.67 2.98 8.34 4 8 C2.84826645 10.46800047 1.95216435 12.04783565 0 14 C-3.625 14.125 -3.625 14.125 -7 14 C-5 11 -5 11 -2.921875 10.1015625 C-0.77498032 9.16904501 -0.77498032 9.16904501 -0.390625 6.8359375 C-0.34421875 6.02382812 -0.2978125 5.21171875 -0.25 4.375 C-0.19328125 3.55773437 -0.1365625 2.74046875 -0.078125 1.8984375 C-0.05234375 1.27195312 -0.0265625 0.64546875 0 0 Z " fill="#B3B3B3" transform="translate(167,94)"/>
<path d="M0 0 C2.05859375 -0.328125 2.05859375 -0.328125 4.4375 -0.25 C5.61119141 -0.22679687 5.61119141 -0.22679687 6.80859375 -0.203125 C9 0 9 0 12 1 C11.67 1.99 11.34 2.98 11 4 C6.71 3.67 2.42 3.34 -2 3 C-1.34 2.01 -0.68 1.02 0 0 Z " fill="#2B2B2B" transform="translate(58,10)"/>
<path d="M0 0 C0.33 1.32 0.66 2.64 1 4 C3.97 4 6.94 4 10 4 C9.67 4.99 9.34 5.98 9 7 C9 6.34 9 5.68 9 5 C6.69 5 4.38 5 2 5 C1.896875 5.639375 1.79375 6.27875 1.6875 6.9375 C1.460625 7.618125 1.23375 8.29875 1 9 C0.01 9.33 -0.98 9.66 -2 10 C-1.54177532 6.53058454 -1.10868317 3.32604951 0 0 Z " fill="#A6A6A6" transform="translate(114,98)"/>
<path d="M0 0 C0.99 0.33 1.98 0.66 3 1 C4.1875 4.5625 4.1875 4.5625 5 8 C2.03 8 -0.94 8 -4 8 C-3.67 7.01 -3.34 6.02 -3 5 C-3 5.66 -3 6.32 -3 7 C-2.01 7 -1.02 7 0 7 C0 4.69 0 2.38 0 0 Z " fill="#8E8E8E" transform="translate(121,93)"/>
<path d="M0 0 C0 3 0 3 -1 5 C-4.34373475 4.44271087 -7.03312999 3.64826111 -10 2 C-6.3558226 -0.4294516 -4.28758728 -0.16179575 0 0 Z " fill="#A7A7A7" transform="translate(167,89)"/>
<path d="M0 0 C1.98 0 3.96 0 6 0 C6.33 1.32 6.66 2.64 7 4 C4.69 4 2.38 4 0 4 C0 2.68 0 1.36 0 0 Z " fill="#2A2A2A" transform="translate(133,12)"/>
<path d="M0 0 C0.66 0.33 1.32 0.66 2 1 C2 1.99 2 2.98 2 4 C1.34 4 0.68 4 0 4 C0.04125 4.94875 0.0825 5.8975 0.125 6.875 C0 10 0 10 -2 12 C-2.05422947 10.5629191 -2.09289723 9.12524538 -2.125 7.6875 C-2.14820313 6.88699219 -2.17140625 6.08648437 -2.1953125 5.26171875 C-2 3 -2 3 0 0 Z " fill="#414141" transform="translate(218,91)"/>
<path d="M0 0 C1.8125 0.9375 1.8125 0.9375 2.8125 3.9375 C-0.1575 3.9375 -3.1275 3.9375 -6.1875 3.9375 C-2.77921598 -0.07940617 -2.77921598 -0.07940617 0 0 Z " fill="#2D2D2D" transform="translate(169.1875,172.0625)"/>
<path d="M0 0 C0.99 0 1.98 0 3 0 C2.979375 0.78375 2.95875 1.5675 2.9375 2.375 C2.81315937 4.98114961 2.81315937 4.98114961 4 7 C2.68 7 1.36 7 0 7 C-1.125 2.25 -1.125 2.25 0 0 Z " fill="#6B6B6B" transform="translate(93,91)"/>
<path d="M0 0 C0.33 0 0.66 0 1 0 C0.67 2.64 0.34 5.28 0 8 C-0.99 8 -1.98 8 -3 8 C-3.33 7.01 -3.66 6.02 -4 5 C-2.125 2.3125 -2.125 2.3125 0 0 Z " fill="#989898" transform="translate(228,96)"/>
<path d="M0 0 C0.66 0.33 1.32 0.66 2 1 C1.04882866 2.1725131 0.08882991 3.33787015 -0.875 4.5 C-1.40867187 5.1496875 -1.94234375 5.799375 -2.4921875 6.46875 C-2.98976563 6.9740625 -3.48734375 7.479375 -4 8 C-4.66 8 -5.32 8 -6 8 C-4.55746343 4.63408134 -2.66735273 2.48952921 0 0 Z " fill="#8F8F8F" transform="translate(25,17)"/>
<path d="M0 0 C2.5625 2.25 2.5625 2.25 5 5 C4.8125 7.3125 4.8125 7.3125 4 9 C1.47740939 7.02579865 1.0070192 6.03254358 0.3125 2.8125 C0.209375 1.884375 0.10625 0.95625 0 0 Z " fill="#646464" transform="translate(186,97)"/>
<path d="M0 0 C1.32 0.66 2.64 1.32 4 2 C3.67 2.66 3.34 3.32 3 4 C2.34 3.67 1.68 3.34 1 3 C0.34 5.31 -0.32 7.62 -1 10 C-1.33 10 -1.66 10 -2 10 C-1.85950482 8.52031676 -1.71245174 7.04125484 -1.5625 5.5625 C-1.48128906 4.73878906 -1.40007812 3.91507812 -1.31640625 3.06640625 C-1 1 -1 1 0 0 Z " fill="#ABABAB" transform="translate(217,89)"/>
<path d="M0 0 C0.99 0 1.98 0 3 0 C3 1.65 3 3.3 3 5 C1.68 5.33 0.36 5.66 -1 6 C-0.67 4.02 -0.34 2.04 0 0 Z " fill="#5E5E5E" transform="translate(230,89)"/>
<path d="M0 0 C2.31 0.33 4.62 0.66 7 1 C7 1.33 7 1.66 7 2 C5.35 2.33 3.7 2.66 2 3 C2 3.66 2 4.32 2 5 C1.01 4.67 0.02 4.34 -1 4 C-0.67 2.68 -0.34 1.36 0 0 Z " fill="#5E5E5E" transform="translate(70,11)"/>
<path d="M0 0 C2 3 2 3 3 6 C1.68 6.33 0.36 6.66 -1 7 C-1.33 6.01 -1.66 5.02 -2 4 C-1.34 4 -0.68 4 0 4 C0 2.68 0 1.36 0 0 Z " fill="#ACACAC" transform="translate(126,101)"/>
</svg>
